# xmcd
#
# Track frame offsets:
#	150
#	28632
#	65850
#	101013
#	135422
#	176106
#	219989
#
# Disc length: 3363 seconds
#
# Revision: 1
# Processed by: cddbd v1.5.2PL0 Copyright (c) Steve Scherf et al.
# Submitted via: audiograbber 1.83.01
#
DISCID=630d2107
DTITLE=Grateful Dead - 95-03-17 The Spectrum, Philadelphia PA
DYEAR=1900
DGENRE=
TTITLE0=Here Comes Sunshine
TTITLE1=Wang Dang Doodle
TTITLE2=Peggy-O
TTITLE3=Queen Jane Approximately
TTITLE4=Lazy River Road
TTITLE5=Eternity
TTITLE6=Loose Lucy
EXTD=
EXTT0=
EXTT1=
EXTT2=
EXTT3=
EXTT4=
EXTT5=
EXTT6=
PLAYORDER=
